<svg xmlns="http://www.w3.org/2000/svg" xmlns:xlink="http://www.w3.org/1999/xlink" width="24" height="24" viewBox="0 0 24 24">
    <defs>
        <path id="a" d="M17.996 5.198v.77c-.02.445-.308.749-.719.749-.41 0-.718-.284-.74-.73-.02-.242 0-.485 0-.748H7.442v.749c-.02.445-.328.729-.739.729-.41 0-.698-.304-.718-.75v-.769c-.699 0-1.356-.02-1.992.02-.185.02-.472.244-.493.385-.062.608-.02 1.235-.02 1.842h17.043v-1.76c0-.304-.185-.487-.473-.487h-2.053zM3.478 8.943v10.83c0 .648.144.77.801.77h15.462c.657 0 .8-.142.8-.77V9.368c0-.141-.02-.283-.02-.445-5.708.02-11.334.02-17.043.02zM17.092 2h.37c.842.344.431 1.113.595 1.72.165 0 .309.02.452.02h1.253C21.22 3.74 22 4.49 22 5.928v13.644c0 1.457-.308 1.923-1.663 2.429H3.643C2.308 21.494 2 21.028 2 19.57V6.11c0-.223 0-.446.02-.669.124-.79.555-1.336 1.315-1.579.328-.1.698-.1 1.067-.121.514-.02 1.027 0 1.582 0 0-.324.02-.547 0-.79-.041-.465.143-.769.554-.951h.37c.821.344.451 1.113.575 1.7h9.034c.103-.607-.226-1.356.575-1.7zM8.714 17.607c.124 1.174-.698 2.288-2.32 2.247-1.499-.04-2.259-.81-2.28-2.308-.02-1.275.802-2.246 2.342-2.246 1.334 0 2.402.87 2.258 2.307zm-2.3.77c.699 0 .843-.122.843-.77 0-.708-.124-.85-.801-.85-.719 0-.842.122-.842.81 0 .688.103.81.8.81zm5.668-3.057c1.54 0 2.3.769 2.28 2.308 0 1.437-.822 2.186-2.321 2.206-1.376.04-2.361-.85-2.28-2.368.083-1.417.822-2.146 2.321-2.146zm-.02 3.057c.718 0 .82-.102.82-.77 0-.728-.102-.83-.82-.83-.678 0-.822.142-.822.79 0 .688.123.81.822.81zm.02-4.11c-1.294.122-2.361-.83-2.3-2.267.062-1.518.801-2.267 2.341-2.267 1.458 0 2.218.81 2.259 2.267.04 1.336-.883 2.389-2.3 2.267zm.8-2.226c0-.709-.102-.83-.759-.83-.719 0-.883.121-.883.79 0 .667.144.829.78.85.74-.021.863-.142.863-.81zm-5.666 0c0-.709-.103-.83-.76-.83-.719 0-.883.121-.883.79 0 .667.144.829.78.85.719-.021.842-.142.863-.81m-.822 2.226c-1.293.122-2.361-.83-2.3-2.267.062-1.498.78-2.267 2.341-2.267 1.458 0 2.218.81 2.259 2.267.062 1.336-.862 2.389-2.3 2.267m13.593 3.34c0 1.458-.8 2.227-2.279 2.227-1.54 0-2.279-.77-2.32-2.308-.02-1.153.698-2.287 2.34-2.226 1.5.06 2.26.789 2.26 2.307zm-2.3-.85c-.677 0-.841.142-.841.79 0 .688.144.83.821.83.699 0 .842-.142.842-.77.02-.708-.123-.85-.821-.85zm-.02-2.49c-1.273.122-2.34-.79-2.3-2.287.042-1.498.822-2.247 2.382-2.247 1.438 0 2.198.81 2.239 2.287.061 1.316-.883 2.369-2.32 2.247zM18.53 12c0-.648-.165-.79-.822-.79-.698 0-.842.142-.842.83 0 .648.165.81.822.81.677-.02.842-.182.842-.85z"/>
    </defs>
    <g fill="none" fill-rule="evenodd">
        <path d="M0 0h24v24H0z"/>
        <mask id="b" fill="#fff">
            <use xlink:href="#a"/>
        </mask>
        <g fill="#fff" mask="url(#b)">
            <path fill="#ffffff" d="M0 0h24v24H0z"/>
        </g>
    </g>
</svg>
