<?xml version="1.0" encoding="UTF-8"?>
<svg xmlns="http://www.w3.org/2000/svg" xmlns:xlink="http://www.w3.org/1999/xlink" width="100px" height="100px" viewBox="0 0 100 100" version="1.1">
<g id="surface1">
<path style=" stroke:none;fill-rule:nonzero;fill:rgb(89.803922%,10.980392%,44.313725%);fill-opacity:1;" d="M 77.859375 14.589844 L 84.460938 14.589844 L 86.460938 11.828125 C 86.460938 11.828125 79 11.828125 77.199219 11.828125 C 76.261719 11.828125 75.199219 12.128906 74.558594 12.628906 C 73.761719 13.25 73.359375 14.109375 73.359375 15.148438 C 73.359375 15.730469 73.460938 16.230469 73.679688 16.671875 C 73.898438 17.089844 74.179688 17.429688 74.519531 17.648438 C 74.839844 17.871094 75.199219 18.03125 75.578125 18.171875 C 75.820312 18.25 77.640625 18.648438 77.941406 18.710938 C 78.199219 18.769531 78.421875 18.851562 78.558594 18.96875 C 78.921875 19.25 78.660156 19.570312 78.578125 19.628906 C 78.519531 19.691406 78.359375 19.75 78.039062 19.75 L 72.539062 19.75 L 71.941406 22.570312 L 78.78125 22.570312 C 78.78125 22.570312 79.640625 22.53125 79.898438 22.429688 C 80.378906 22.289062 80.539062 22.351562 81.160156 21.851562 C 81.960938 21.230469 82.261719 20.289062 82.261719 19.25 C 82.261719 18.671875 82.160156 18.171875 81.941406 17.730469 C 81.71875 17.308594 81.441406 16.96875 81.101562 16.75 C 80.78125 16.53125 80.421875 16.371094 80.039062 16.230469 C 79.800781 16.148438 77.980469 15.75 77.679688 15.691406 C 77.421875 15.628906 77.21875 15.550781 77.058594 15.429688 C 76.960938 15.351562 76.921875 15.269531 76.921875 15.148438 C 76.921875 15.070312 76.921875 14.949219 77.101562 14.789062 C 77.28125 14.570312 77.859375 14.589844 77.859375 14.589844 Z M 19.238281 19.890625 L 24.339844 19.890625 L 23.800781 22.511719 L 15.78125 22.511719 L 17.980469 11.828125 L 26 11.828125 L 25.480469 14.449219 L 20.398438 14.449219 L 20.140625 15.890625 L 24.21875 15.890625 L 23.71875 18.449219 L 19.519531 18.449219 Z M 34.421875 19.308594 C 34.238281 20.289062 33.800781 21.070312 33.078125 21.648438 C 32.378906 22.230469 31.558594 22.511719 30.621094 22.511719 L 25.101562 22.511719 L 27.320312 11.828125 L 32.140625 11.828125 C 33.101562 11.828125 33.839844 12.089844 34.320312 12.609375 C 34.800781 13.128906 34.941406 13.828125 34.761719 14.730469 C 34.621094 15.488281 34.039062 16.148438 33.058594 16.710938 L 33.058594 16.769531 C 34.199219 17.289062 34.660156 18.128906 34.421875 19.308594 Z M 31.558594 19.011719 C 31.621094 18.710938 31.578125 18.46875 31.441406 18.25 C 31.300781 18.03125 31.101562 17.929688 30.839844 17.929688 L 28.980469 17.929688 L 28.539062 20.089844 L 30.441406 20.089844 C 30.679688 20.089844 30.921875 19.96875 31.140625 19.75 C 31.359375 19.550781 31.5 19.289062 31.558594 19.011719 Z M 29.78125 14.230469 L 29.480469 15.929688 L 31 15.929688 C 31.179688 15.929688 31.359375 15.828125 31.519531 15.648438 C 31.699219 15.46875 31.800781 15.269531 31.839844 15.070312 C 31.878906 14.871094 31.839844 14.691406 31.738281 14.511719 C 31.640625 14.328125 31.5 14.230469 31.320312 14.230469 Z M 41.078125 18.46875 L 41.578125 16.011719 L 46.800781 16.011719 L 45.480469 22.53125 L 42.960938 22.53125 L 43.21875 21.308594 L 43.160156 21.269531 C 42.640625 21.75 42.539062 21.890625 42 22.148438 C 41.480469 22.410156 40.738281 22.550781 39.921875 22.550781 C 38.519531 22.550781 37.058594 22.25 36.261719 21.210938 C 35.460938 20.171875 35.199219 18.828125 35.5 17.191406 C 35.679688 16.148438 36.140625 15.210938 36.839844 14.351562 C 37.539062 13.488281 38.160156 12.949219 39.160156 12.449219 C 40.160156 11.96875 41.359375 11.808594 42.421875 11.808594 C 43.699219 11.808594 45.078125 12.148438 45.621094 12.589844 C 46.441406 13.25 46.878906 14.128906 46.921875 15.269531 L 43.921875 15.269531 C 43.679688 14.53125 43.019531 14.171875 41.941406 14.171875 C 41.160156 14.171875 40.441406 14.46875 39.78125 15.089844 C 39.121094 15.691406 38.71875 16.390625 38.558594 17.191406 C 38.398438 17.988281 38.539062 18.691406 38.960938 19.269531 C 39.378906 19.851562 39.980469 20.148438 40.738281 20.148438 C 41.378906 20.148438 41.960938 19.988281 42.441406 19.691406 C 42.941406 19.371094 43.28125 18.96875 43.5 18.488281 L 41.078125 18.488281 Z M 53.601562 22.570312 L 53.421875 20.988281 L 50.121094 20.988281 L 49.339844 22.570312 L 46.398438 22.570312 L 52.140625 11.890625 L 55.039062 11.890625 L 56.539062 22.570312 Z M 53.160156 18.648438 L 53 15.171875 L 52.859375 15.171875 L 51.300781 18.648438 Z M 57.421875 22.570312 L 59.640625 11.890625 L 62.539062 11.890625 L 60.320312 22.570312 Z M 70.738281 22.570312 L 67.941406 22.570312 L 65.878906 17.148438 L 65.78125 17.148438 L 64.621094 22.570312 L 61.679688 22.570312 L 63.859375 11.890625 L 66.800781 11.890625 L 68.941406 17.171875 L 69.039062 17.171875 L 70.039062 11.890625 L 72.878906 11.890625 Z M 70.738281 22.570312 "/>
<path style=" stroke:none;fill-rule:nonzero;fill:rgb(89.803922%,10.980392%,44.313725%);fill-opacity:1;" d="M 13.738281 11.929688 L 12.601562 17.171875 L 12.5 17.171875 L 10.460938 11.769531 L 10.441406 11.769531 L 10.378906 12.148438 L 10.359375 12.171875 L 10.441406 11.769531 L 6.660156 16.75 L 7.679688 11.929688 L 4.699219 11.929688 L 2.578125 22.570312 L 5.539062 22.570312 L 9.300781 17.289062 L 9.480469 17.289062 L 11.261719 22.570312 L 14.199219 22.570312 L 16.398438 11.929688 Z M 13.738281 11.929688 "/>
<path style=" stroke:none;fill-rule:nonzero;fill:rgb(89.803922%,10.980392%,44.313725%);fill-opacity:1;" d="M 99.960938 11.828125 L 91.460938 11.828125 C 91.460938 11.828125 92.101562 19.308594 89.058594 25.109375 C 84 34.769531 53.519531 75.691406 53.519531 75.691406 L 48.480469 68.730469 L 59.558594 53.148438 C 62.058594 49.789062 59.660156 45.03125 55.480469 45.03125 L 37.359375 45.03125 L 42.519531 53.511719 L 47.878906 53.511719 L 42.421875 60.769531 L 30.078125 43.808594 C 28.101562 41.089844 29.800781 37.550781 33.160156 37.589844 L 70.878906 37.589844 L 76.621094 29.628906 L 29.800781 29.628906 C 20.859375 29.628906 15.820312 39.53125 21.078125 46.75 L 36.800781 68.410156 L 31.441406 75.671875 C 31.441406 75.671875 13.28125 50.890625 11.71875 48.230469 C 10.21875 45.628906 9.441406 44.410156 8.679688 41.289062 C 7.398438 35.769531 9.480469 29.648438 9.480469 29.648438 L 1.21875 29.648438 C 1.21875 29.648438 0.421875 32.148438 0.0390625 37.011719 C -0.359375 42.148438 1.121094 46.769531 3.320312 50.988281 C 4.441406 53.109375 19.839844 75.171875 28.121094 86.46875 C 29.800781 88.769531 33.21875 88.769531 34.921875 86.488281 L 42.398438 76.449219 L 43.960938 78.710938 L 49.621094 86.511719 C 51.21875 88.75 54.539062 88.789062 56.199219 86.589844 L 82.300781 50.03125 C 85.300781 45.988281 91.21875 38.230469 96.058594 29.648438 C 100.359375 22.03125 100.019531 12.191406 99.960938 11.828125 Z M 99.960938 11.828125 "/>
</g>
</svg>
