<svg xmlns="http://www.w3.org/2000/svg" width="108" height="18" viewBox="0 0 108 18">
    <path fill="#FFFFFE" fill-rule="evenodd" d="M4.872 9.365c-1.361.048-3.37-.11-3.781 1.842-.19.905.108 1.651 1.083 1.651 1.084 0 2.171-.984 2.391-2.032l.307-1.46zm-.591 3.112h-.032c-.663.762-1.513 1.143-2.487 1.143-1.414 0-1.98-.968-1.687-2.365.591-2.81 3.328-2.525 4.958-2.652l.14-.666c.247-1.175.051-1.89-1.206-1.89-.864 0-1.645.429-1.846 1.381H1.116c.402-1.54 1.707-2.143 3.09-2.143.801 0 2.45.08 2.02 2.128l-.848 4.032c-.12.572-.227 1.08-.33 2.016h-.974l.207-.984zm6.967-.032l-.035.016c-.647.762-1.328 1.159-2.255 1.159-2.294 0-1.936-2.302-1.542-4.175.324-1.54.875-4.16 3.31-4.16.723 0 1.36.334 1.717.953l.028.016.895-4.255h.943l-2.077 9.875c-.166.793-.23 1.318-.24 1.587h-.91l.166-1.016zm.43-2.27l.3-1.429c.1-.476.568-2.699-1.208-2.699-1.697 0-2.024 1.556-2.418 3.43-.627 2.984-.004 3.381 1.018 3.381.895 0 1.897-.73 2.308-2.683zM36.65 6.412l.035-.015c.666-.778 1.522-1.112 2.15-1.112 2.483 0 2.038 2.191 1.818 3.239l-.377 1.794c-.437 2.08-1.402 3.302-3.429 3.302-.58 0-1.102-.285-1.43-1.048l-.027-.016-.828 3.938h-.943l2.324-11.05h.91l-.203.968zm-.756 3.747c-.384 1.826.25 2.7 1.114 2.7 1.555 0 2.068-1.319 2.509-3.414.437-2.08.478-3.398-1.077-3.398-.613 0-1.829.699-2.246 2.683l-.3 1.429zm6.768-.508l-.13.62c-.233 1.11-.245 2.587 1.248 2.587 1.178 0 1.92-.762 2.131-1.841h.99c-.517 1.936-1.695 2.603-3.282 2.603-1.367 0-2.617-.555-2.106-2.985l.414-1.968c.487-2.318 1.67-3.382 3.445-3.382 2.734 0 2.317 1.985 1.816 4.366H42.66zm3.743-.762c.374-1.778.315-2.842-1.193-2.842-1.509 0-2.015 1.064-2.39 2.842h3.583zm4.04-2.477l.035-.015c.667-.778 1.522-1.112 2.15-1.112 2.484 0 2.039 2.191 1.818 3.239l-.377 1.794c-.437 2.08-1.401 3.302-3.428 3.302-.582 0-1.103-.285-1.43-1.048l-.028-.016-.828 3.938h-.943l2.323-11.05h.912l-.203.968zm-.756 3.747c-.384 1.826.25 2.7 1.114 2.7 1.555 0 2.068-1.319 2.509-3.414.437-2.08.478-3.398-1.077-3.398-.613 0-1.828.699-2.246 2.683l-.3 1.429zm7.654-3.747l.035-.015c.666-.778 1.522-1.112 2.15-1.112 2.483 0 2.038 2.191 1.818 3.239l-.377 1.794c-.437 2.08-1.402 3.302-3.429 3.302-.581 0-1.103-.285-1.43-1.048l-.027-.016-.828 3.938h-.943l2.323-11.05h.912l-.204.968zm-.756 3.747c-.384 1.826.25 2.7 1.113 2.7 1.556 0 2.069-1.319 2.51-3.414.437-2.08.478-3.398-1.077-3.398-.613 0-1.829.699-2.246 2.683l-.3 1.429zm6.768-.508l-.13.62c-.234 1.11-.245 2.587 1.247 2.587 1.179 0 1.92-.762 2.132-1.841h.99c-.518 1.936-1.695 2.603-3.282 2.603-1.367 0-2.617-.555-2.107-2.985l.414-1.968c.488-2.318 1.67-3.382 3.446-3.382 2.734 0 2.316 1.985 1.816 4.366h-4.526zm3.743-.762c.374-1.778.315-2.842-1.193-2.842-1.51 0-2.016 1.064-2.39 2.842h3.583zm4.08-2.366h.031a3.063 3.063 0 0 1 2.445-1.238l-.204.969c-1.312-.111-2.362.698-2.646 2.048l-1.085 5.16h-.943l1.686-8.018h.943l-.227 1.08zm11.072-1.095h.927c-.192.762-.291 1.159-.378 1.572l-1.419 6.747c-.37 1.763-1.125 2.81-3.388 2.81-1.98 0-2.075-1.413-1.842-2.222h.943c-.257.92.305 1.46 1.185 1.46 1.839 0 1.94-1 2.443-3.397h-.031c-.552.682-1.367.968-2.12.968-2.28 0-2.02-1.984-1.645-3.763.39-1.857.41-1.873.81-2.73.148-.334.962-1.588 2.565-1.588.801 0 1.516.413 1.711 1.127l.025.032.214-1.016zM77.937 9.27c-.35 1.667-.701 3.334 1.011 3.334.786 0 1.4-.524 1.62-.905.366-.619.506-.984 1-3.334.354-1.683-.408-2.318-1.288-2.318-1.634 0-2.093 2.032-2.343 3.223zm7.836-2.747h.032a3.063 3.063 0 0 1 2.444-1.238l-.203.969c-1.313-.111-2.363.698-2.647 2.048l-1.085 5.16h-.942l1.685-8.018H86l-.227 1.08zm2.282 3.795l.364-1.73c.437-2.08 1.574-3.303 3.428-3.303 1.855 0 2.478 1.223 2.04 3.302l-.364 1.73c-.437 2.08-1.574 3.303-3.428 3.303-1.855 0-2.477-1.222-2.04-3.302zm1.126-.873c-.44 2.095-.482 3.413 1.074 3.413s2.069-1.318 2.51-3.413c.436-2.08.478-3.398-1.078-3.398s-2.068 1.318-2.506 3.398zm11.997-4.001l-1.685 8.017h-.817l.186-.889h-.03c-.694.683-1.337 1.048-2.217 1.048-1.634 0-1.836-1.206-1.562-2.508l1.191-5.668h.943l-1.158 5.509c-.047.222-.448 1.905.92 1.905 1.272 0 1.981-1.207 2.098-1.762l1.189-5.652h.942zm2.64.968l.035-.015c.666-.778 1.522-1.112 2.15-1.112 2.484 0 2.038 2.191 1.818 3.239l-.377 1.794c-.437 2.08-1.401 3.302-3.428 3.302-.582 0-1.103-.285-1.43-1.048l-.028-.016-.828 3.938h-.943l2.324-11.05h.91l-.203.968zm-.756 3.747c-.384 1.826.25 2.7 1.114 2.7 1.555 0 2.068-1.319 2.509-3.414.437-2.08.479-3.398-1.077-3.398-.613 0-1.828.699-2.246 2.683l-.3 1.429zM32.903 9c0 4.97-3.988 9-8.908 9s-8.907-4.03-8.907-9 3.988-9 8.907-9c4.92 0 8.908 4.03 8.908 9zM22.176 4.392a5.742 5.742 0 0 0-.416-.27c-.345-.203-.172-.612-.442-1.172-.167-.345-.4-.619-.4-.619l-.162.11s.172.201.312.485c.136.274.223.547.161.777-.08.304-.14.367-.306.465-.096.057-.08.028-.3.145-.034.017-.151.074-.19.105-.336.248-.455.656-.435 1.306.006.22.131.608.19.806.084.307.161.909.164 1.267 0 0-.008.77-.792 2.168-.345.614-.68 1.004-1.001 1.521-.285.46-.644 1.126-.744 1.617-.203.792-.023 1.663.42 1.526.287-.09.2-.71.55-1.494.413-.922 2.122-2.4 3.041-3.614.35-.464.833-1.3.902-2.347.063-.966.273-2.229-.552-2.782zm3.73 0a5.7 5.7 0 0 0-.416-.27c-.344-.203-.172-.612-.442-1.172-.166-.345-.4-.619-.4-.619l-.162.11s.172.201.313.485c.135.274.223.547.16.777-.08.304-.14.367-.306.465-.096.057-.08.028-.3.145-.034.017-.151.074-.19.105-.335.248-.455.656-.435 1.306.007.22.132.608.19.806.084.307.162.909.165 1.267 0 0-.009.77-.793 2.168-.344.614-.68 1.004-1.001 1.521-.285.46-.644 1.126-.744 1.617-.202.792-.022 1.663.42 1.526.287-.09.2-.71.55-1.494.413-.922 2.122-2.4 3.041-3.614.35-.464.833-1.3.902-2.347.063-.966.273-2.229-.551-2.782zm3.731 0a5.699 5.699 0 0 0-.417-.27c-.344-.203-.171-.612-.441-1.172a3.256 3.256 0 0 0-.4-.619l-.163.11s.172.201.313.485c.135.274.223.547.161.777-.081.304-.14.367-.306.465-.096.057-.08.028-.3.145-.034.017-.152.074-.19.105-.336.248-.456.656-.436 1.306.007.22.132.608.19.806.084.307.162.909.165 1.267 0 0-.008.77-.793 2.168-.344.614-.68 1.004-1 1.521-.285.46-.645 1.126-.744 1.617-.203.792-.023 1.663.419 1.526.287-.09.2-.71.55-1.494.413-.922 2.122-2.4 3.042-3.614.35-.464.833-1.3.901-2.347.063-.966.273-2.229-.55-2.782z"/>
</svg>
